<svg width="1792" height="245" viewBox="0 0 1792 245" fill="none" xmlns="http://www.w3.org/2000/svg">
<path d="M673.025 222.636H640.559V1.99609H673.025V222.636Z" fill="#F4F2EE"/>
<path d="M490.319 60.625H577.944C594.335 60.625 607.573 73.8634 607.573 90.569V130.6H607.258C605.997 145.729 593.389 157.392 577.944 157.392H493.155V127.448H575.108V90.569H493.155V127.448V163.586L460.375 114.423V90.569H460.69C460.69 73.8634 473.928 60.625 490.319 60.625ZM460.375 190.172V114.423C461.425 114.423 493.155 157.392 493.155 157.392V193.009H601.584V222.638H493.155C470.461 222.638 460.375 208.139 460.375 190.172Z" fill="#F4F2EE"/>
<path d="M206.542 27.8435V3.25781H239.007V60.3091C221.041 60.3091 206.542 45.8099 206.542 27.8435ZM239.007 222.637H206.542V67.8739H239.007V222.637Z" fill="#F4F2EE"/>
<path d="M33.7265 1.99609H134.906C153.503 1.99609 168.632 17.1257 168.632 35.7225V109.795C168.632 128.707 153.503 143.521 134.906 143.521H33.7265V112.001H134.906V33.5162H33.7265V112.001C15.1296 112.001 0 96.8715 0 78.2746V35.7225C0 17.1257 15.1296 1.99609 33.7265 1.99609ZM0 222.636V177.248C0 158.651 15.1296 143.521 33.7265 143.521V222.636H0Z" fill="#F4F2EE"/>
<path d="M1233.18 58.6289H1284.55C1300.94 58.6289 1314.18 72.1825 1314.18 88.5729V220.642H1281.72V88.5729H1203.55C1203.55 72.1825 1216.78 58.6289 1233.18 58.6289ZM1203.55 220.642H1170.77V88.5729H1203.55V220.642Z" fill="#4ECDC4"/>
<path d="M1100.58 25.8474V1.26172H1133.05V58.313C1115.08 58.313 1100.58 43.8138 1100.58 25.8474ZM1133.05 220.641H1100.58V65.8778H1133.05V220.641Z" fill="#4ECDC4"/>
<path d="M928.593 58.6289H1033.24C1049.63 58.6289 1062.87 71.8673 1062.87 88.2577V191.013H1030.4V154.45H944.983V191.013H1030.4V220.642H942.147C925.441 220.642 912.203 207.404 912.203 191.013V154.45C912.203 138.059 925.441 124.821 942.147 124.821H1030.4V88.2577H928.593V58.6289Z" fill="#4ECDC4"/>
<path d="M874.292 33.7265V76.9089C874.292 95.5058 859.162 110.635 840.565 110.635V141.84H739.386V220.64H705.66V33.7265C705.66 15.1296 720.789 0 739.386 0H840.565C859.162 0 874.292 15.1296 874.292 33.7265ZM739.386 31.5201V110.32H840.565V31.5201H739.386ZM874.292 175.567V220.64H840.565V141.84C859.162 141.84 874.292 156.97 874.292 175.567Z" fill="#4ECDC4"/>
<path d="M275.213 221.041L325.454 148.739L276.742 76.873H317.808L349.7 130.171H351.011L383.339 76.873H424.624L375.257 147.865L426.153 221.041H385.087L351.011 165.995H349.7L316.279 221.041H275.213Z" fill="#F4F2EE"/>
<path d="M1744.31 244.685V235.792H1752.27C1755.79 235.792 1758.51 235.103 1760.44 233.724C1762.37 232.414 1763.85 230.001 1764.89 226.486L1766.23 221.936H1760.13L1740.38 167.958H1750.51L1766.54 213.663H1768.71L1782.26 167.958H1791.98L1773.57 229.071C1771.92 234.586 1769.26 238.55 1765.61 240.962C1761.96 243.444 1757.3 244.685 1751.65 244.685H1744.31Z" fill="#4ECDC4"/>
<path d="M1705.9 225.038C1701.14 225.038 1697 224.211 1693.49 222.556C1690.04 220.833 1687.18 218.627 1684.91 215.938C1682.63 213.181 1680.91 210.113 1679.74 206.735C1678.63 203.357 1678.08 199.945 1678.08 196.498V194.636C1678.08 191.121 1678.63 187.674 1679.74 184.296C1680.91 180.849 1682.63 177.781 1684.91 175.093C1687.25 172.404 1690.15 170.232 1693.59 168.578C1697.04 166.923 1701.07 166.096 1705.69 166.096C1709.14 166.096 1712.34 166.613 1715.31 167.647C1718.27 168.612 1720.86 169.991 1723.06 171.784C1725.34 173.576 1727.13 175.782 1728.44 178.402C1729.82 181.021 1730.61 183.917 1730.82 187.088H1721.3C1720.75 183.572 1719.13 180.677 1716.44 178.402C1713.83 176.127 1710.24 174.989 1705.69 174.989C1702.73 174.989 1700.14 175.506 1697.94 176.54C1695.73 177.574 1693.87 179.022 1692.35 180.883C1690.9 182.676 1689.8 184.847 1689.04 187.398C1688.35 189.88 1688.01 192.603 1688.01 195.567C1688.01 198.462 1688.35 201.151 1689.04 203.633C1689.8 206.114 1690.9 208.286 1692.35 210.147C1693.87 212.009 1695.73 213.491 1697.94 214.594C1700.21 215.628 1702.86 216.145 1705.9 216.145C1710.52 216.145 1714.24 214.973 1717.07 212.629C1719.89 210.216 1721.51 207.252 1721.93 203.736H1731.44C1731.23 206.976 1730.44 209.906 1729.06 212.526C1727.68 215.145 1725.85 217.386 1723.58 219.247C1721.3 221.108 1718.65 222.522 1715.62 223.487C1712.65 224.521 1709.41 225.038 1705.9 225.038Z" fill="#4ECDC4"/>
<path d="M1612.97 223.177V167.958H1620.83V180.78C1622.07 176.023 1624.28 172.439 1627.45 170.026C1630.62 167.544 1634.82 166.303 1640.06 166.303H1640.48C1647.44 166.303 1652.58 168.475 1655.89 172.818C1659.26 177.161 1660.95 183.434 1660.95 191.638V223.177H1651.03V189.57C1651.03 185.227 1649.82 181.78 1647.41 179.229C1644.99 176.678 1641.68 175.403 1637.48 175.403C1633.14 175.403 1629.62 176.747 1626.93 179.436C1624.24 182.124 1622.9 185.709 1622.9 190.19V223.177H1612.97Z" fill="#4ECDC4"/>
<path d="M1570.03 225.038C1565.13 225.038 1560.93 224.211 1557.41 222.556C1553.96 220.902 1551.14 218.73 1548.93 216.041C1546.73 213.353 1545.07 210.32 1543.97 206.942C1542.93 203.495 1542.42 200.014 1542.42 196.498V194.636C1542.42 191.052 1542.93 187.57 1543.97 184.192C1545.07 180.745 1546.73 177.678 1548.93 174.989C1551.21 172.301 1554.03 170.164 1557.41 168.578C1560.79 166.923 1564.79 166.096 1569.41 166.096C1573.89 166.096 1577.78 166.855 1581.09 168.371C1584.4 169.888 1587.12 171.887 1589.26 174.369C1591.47 176.85 1593.09 179.711 1594.12 182.951C1595.22 186.192 1595.77 189.535 1595.77 192.982V197.428H1551.93C1552.07 200.117 1552.52 202.633 1553.27 204.977C1554.1 207.252 1555.24 209.251 1556.69 210.975C1558.2 212.629 1560.07 213.939 1562.27 214.904C1564.48 215.869 1567.06 216.352 1570.03 216.352C1574.37 216.352 1577.89 215.421 1580.57 213.56C1583.33 211.629 1584.99 209.355 1585.54 206.735H1594.84C1593.67 212.526 1590.88 217.041 1586.47 220.281C1582.06 223.452 1576.58 225.038 1570.03 225.038ZM1569.41 174.782C1564.37 174.782 1560.44 176.196 1557.62 179.022C1554.86 181.78 1553.1 185.433 1552.34 189.983H1585.95C1585.4 185.295 1583.75 181.607 1580.99 178.919C1578.23 176.161 1574.37 174.782 1569.41 174.782Z" fill="#4ECDC4"/>
<path d="M1494.56 244.685C1491.94 244.685 1489.35 244.582 1486.8 244.375C1484.25 244.168 1481.81 243.892 1479.46 243.548V235.172C1481.94 235.516 1484.53 235.792 1487.22 235.999C1489.98 236.275 1492.56 236.413 1494.97 236.413C1498.76 236.413 1501.97 236.033 1504.59 235.275C1507.21 234.517 1509.31 233.345 1510.9 231.759C1512.55 230.243 1513.72 228.243 1514.41 225.762C1515.17 223.349 1515.55 220.454 1515.55 217.076V212.112C1513.48 216.041 1510.69 218.937 1507.18 220.798C1503.73 222.66 1499.9 223.59 1495.7 223.59C1491.84 223.59 1488.29 222.832 1485.05 221.315C1481.87 219.799 1479.12 217.765 1476.77 215.214C1474.5 212.664 1472.71 209.699 1471.4 206.321C1470.16 202.874 1469.54 199.221 1469.54 195.36V193.499C1469.54 189.638 1470.19 186.054 1471.5 182.745C1472.81 179.367 1474.64 176.471 1476.98 174.058C1479.32 171.577 1482.12 169.646 1485.36 168.268C1488.67 166.82 1492.28 166.096 1496.21 166.096C1501.04 166.096 1505.24 167.165 1508.83 169.302C1512.41 171.439 1515.21 174.541 1517.21 178.608V167.958H1525.06V216.662C1525.06 221.625 1524.51 225.865 1523.41 229.381C1522.31 232.966 1520.51 235.861 1518.03 238.067C1515.62 240.342 1512.48 241.997 1508.62 243.031C1504.76 244.134 1500.07 244.685 1494.56 244.685ZM1497.56 214.49C1500.04 214.49 1502.35 214.077 1504.49 213.25C1506.69 212.422 1508.59 211.25 1510.17 209.734C1511.83 208.148 1513.14 206.218 1514.1 203.943C1515.07 201.668 1515.55 199.117 1515.55 196.291V191.534C1515.55 188.777 1515.07 186.329 1514.1 184.192C1513.14 182.055 1511.83 180.263 1510.17 178.815C1508.52 177.367 1506.59 176.264 1504.38 175.506C1502.25 174.748 1500.01 174.369 1497.66 174.369C1494.97 174.369 1492.49 174.851 1490.22 175.816C1488.01 176.782 1486.08 178.16 1484.43 179.953C1482.84 181.676 1481.6 183.779 1480.7 186.26C1479.88 188.673 1479.46 191.396 1479.46 194.43C1479.46 197.532 1479.91 200.324 1480.81 202.805C1481.7 205.218 1482.94 207.321 1484.53 209.113C1486.11 210.837 1488.01 212.181 1490.22 213.146C1492.49 214.042 1494.94 214.49 1497.56 214.49Z" fill="#4ECDC4"/>
<path d="M1385.79 223.177L1412.99 147.69H1430.15L1458.18 223.177H1447.73L1439.46 200.634H1403.89L1395.92 223.177H1385.79ZM1407.2 191.534H1436.05L1423.33 156.79H1419.5L1407.2 191.534Z" fill="#4ECDC4"/>
</svg>
